<svg xmlns="http://www.w3.org/2000/svg" width="156" height="48" fill="none"><path fill="#fff" d="M77.117 40.094c5.505-2.259 9.035-7.623 8.894-13.694 0-3.953-1.553-7.624-4.236-10.447-2.682-2.824-6.494-4.377-10.306-4.235-5.929 0-11.152 3.529-13.411 9.176-2.26 5.506-.989 11.859 3.106 16.094 4.235 4.236 10.447 5.506 15.953 3.106Zm-5.648-5.647c-4.094 0-7.34-3.247-7.34-7.906s3.246-7.906 7.34-7.906c4.095 0 7.342 3.247 7.342 7.906s-3.247 7.906-7.342 7.906Zm75.953 6.07a10.658 10.658 0 0 0-3.952-20.47c-4.236 0-8.048 2.541-9.742 6.635-1.553 3.953-.706 8.612 2.259 11.577 3.106 2.965 7.483 3.812 11.435 2.259Zm-4.094-5.223c-2.541 0-4.517-1.976-4.517-4.659 0-2.823 1.976-4.659 4.517-4.659 2.542 0 4.518 1.977 4.518 4.66 0 2.682-1.976 4.658-4.518 4.658ZM96.599 11.012v29.93h-7.765v-29.93H96.6Zm11.576 0v29.93h-7.341v-29.93h7.341Zm10.306 24.706-8.329-15.812h7.765l4.376 8.612 4.377-8.612h7.623L119.046 48h-7.482l6.917-12.282ZM9.07 18.918c0-4.66 1.694-8.894 4.517-12.283a20.668 20.668 0 0 0 7.483 39.953c8.894 0 16.517-5.647 19.482-13.553a18.816 18.816 0 0 1-12.424 4.66A18.742 18.742 0 0 1 9.07 18.917ZM27.988 0c-5.788 0-10.87 2.541-14.4 6.635a20.753 20.753 0 0 1 28.235 19.2c0 2.541-.423 4.941-1.27 7.06a18.593 18.593 0 0 0 6.494-14.119C46.906 8.471 38.435 0 27.987 0Z"/></svg>